<svg xmlns="http://www.w3.org/2000/svg" width="256" height="256" viewBox="0 0 256 256">
  <defs>
    <linearGradient id="alcoveDirectional" x1="82" y1="59" x2="176" y2="189" gradientUnits="userSpaceOnUse">
  <stop offset="0%" stop-color="#72EDCA"/>
  <stop offset="38%" stop-color="#58E5BB"/>
  <stop offset="100%" stop-color="#3BC49D"/>
</linearGradient>
  </defs>
  <rect x="12" y="12" width="232" height="232" rx="56" fill="#111318"/>
  <path d="M51 210 L82 101 C90 65 107 43 128 43 C149 43 166 65 174 101 L205 210 H163 L152 168 H104 L93 210 Z" fill="url(#alcoveDirectional)"/>
  <path d="M101 162 V109 C101 79 112 61 128 61 C144 61 155 79 155 109 V162 Z" fill="#111318"/>
  <rect x="104" y="162" width="48" height="6" rx="3" fill="#58E5BB"/>
  <rect x="111" y="88" width="15" height="15" rx="5.5" fill="#58E5BB"/>
<rect x="130" y="88" width="15" height="15" rx="5.5" fill="#58E5BB"/>
<rect x="111" y="107" width="15" height="15" rx="5.5" fill="#58E5BB"/>
<rect x="130" y="107" width="15" height="15" rx="5.5" fill="#58E5BB"/>
</svg>